<?xml version="1.0" encoding="utf-8"?>
<!-- Generator: Adobe Illustrator 21.1.0, SVG Export Plug-In . SVG Version: 6.00 Build 0)  -->
<svg version="1.1" id="Ebene_1" xmlns="http://www.w3.org/2000/svg" xmlns:xlink="http://www.w3.org/1999/xlink" x="0px" y="0px"
	 viewBox="0 0 297.6 419.5" style="enable-background:new 0 0 297.6 419.5;" xml:space="preserve">
<style type="text/css">
	.st0{fill:#FFFFFF;}
</style>
<g>
	<polygon class="st0" points="69.3,369.9 67.9,368.5 79.4,357 103.9,357 121.2,339.7 121.2,222.3 106.6,207.8 67.5,207.8 
		48.8,226.6 30.8,226.6 30.8,224.6 48,224.6 66.6,205.8 107.5,205.8 123.2,221.5 123.2,340.6 104.7,359 80.2,359 	"/>
</g>
<g>
	<polygon class="st0" points="84.2,341.1 82.8,339.6 96.6,326 107.4,326 114.7,318.6 114.7,232.3 108.5,226 109.9,224.6 
		116.7,231.5 116.7,319.4 108.3,328 97.5,328 	"/>
</g>
<g>
	<polygon class="st0" points="119.4,375.4 117.4,375.4 117.4,360.3 127.4,350.1 127.4,174.1 107.4,154.3 71,154.3 51.7,134.9 
		23.5,134.9 23.5,132.9 52.6,132.9 71.8,152.3 108.3,152.3 129.4,173.3 129.4,351 119.4,361.2 	"/>
</g>
<g>
	<polygon class="st0" points="145.9,372.1 143.9,372.1 143.9,354.7 133.9,344.7 133.9,168.6 113.5,148.2 113.5,105.3 115.5,105.3 
		115.5,147.4 135.9,167.8 135.9,343.9 145.9,353.9 	"/>
</g>
<g>
	<polygon class="st0" points="167.9,378.7 151.7,362.5 151.7,344.1 140.4,332.7 140.4,163.3 166.8,136.8 166.8,112.3 190.8,88.4 
		237.1,88.4 237.1,90.4 191.6,90.4 168.8,113.1 168.8,137.6 142.4,164.1 142.4,331.9 153.7,343.3 153.7,361.7 169.3,377.3 	"/>
</g>
<g>
	<polygon class="st0" points="188.5,350.3 170.8,332.5 157,332.5 146.6,322.1 146.6,215.2 169,192.9 224.7,192.9 253.3,164.4 
		253.3,129.8 255.3,129.8 255.3,165.3 225.5,194.9 169.8,194.9 148.6,216.1 148.6,321.3 157.9,330.5 171.6,330.5 189.9,348.9 	"/>
</g>
<g>
	<polygon class="st0" points="189.1,334.2 176.4,321.5 163.9,321.5 153.1,310.8 153.1,234.3 159.6,227.8 178.2,227.8 187.9,237.3 
		186.6,238.7 177.4,229.8 160.4,229.8 155.1,235.1 155.1,309.9 164.7,319.5 177.3,319.5 190.5,332.8 	"/>
</g>
<g>
	<rect x="185.7" y="236.6" class="st0" width="12.4" height="12.4"/>
</g>
<g>
	<rect x="108.2" y="98.6" class="st0" width="12.4" height="12.4"/>
</g>
<g>
	<rect x="122.2" y="61.1" class="st0" width="12.4" height="12.4"/>
</g>
<g>
	<rect x="57.3" y="81.1" class="st0" width="12.4" height="12.4"/>
</g>
<g>
	<rect y="109.2" class="st0" width="12.4" height="12.4"/>
</g>
<g>
	<rect x="56.7" y="108.6" class="st0" width="12.4" height="12.4"/>
</g>
<g>
	<rect x="141.2" y="86" class="st0" width="12.4" height="12.4"/>
</g>
<g>
	<rect x="17.5" y="128" class="st0" width="12.4" height="12.4"/>
</g>
<g>
	<rect x="27.1" y="163.1" class="st0" width="12.4" height="12.4"/>
</g>
<g>
	<rect x="68.2" y="166.6" class="st0" width="12.4" height="12.4"/>
</g>
<g>
	<rect x="24.7" y="219.4" class="st0" width="12.4" height="12.4"/>
</g>
<g>
	<rect x="102.7" y="220" class="st0" width="12.4" height="12.4"/>
</g>
<g>
	<rect x="211.8" y="164.3" class="st0" width="12.4" height="12.4"/>
</g>
<g>
	<rect x="247.8" y="123.3" class="st0" width="12.4" height="12.4"/>
</g>
<g>
	<rect x="271.8" y="106.6" class="st0" width="12.4" height="12.4"/>
</g>
<g>
	<rect x="248" y="64.1" class="st0" width="12.4" height="12.4"/>
</g>
<g>
	<rect x="177.4" y="45.1" class="st0" width="12.4" height="12.4"/>
</g>
<g>
	<rect x="79.6" y="40" class="st0" width="12.4" height="12.4"/>
</g>
<g>
	<rect x="285.3" y="167" class="st0" width="12.4" height="12.4"/>
</g>
<g>
	<rect x="230.4" y="147.2" class="st0" width="12.4" height="12.4"/>
</g>
<g>
	<rect x="223.7" y="120.6" class="st0" width="12.4" height="12.4"/>
</g>
<g>
	<rect x="230.4" y="83.1" class="st0" width="12.4" height="12.4"/>
</g>
<g>
	<polygon class="st0" points="170.4,193.9 168.4,193.9 168.4,171.1 213.7,125.6 231,125.6 231,127.6 214.5,127.6 170.4,171.9 	"/>
</g>
<g>
	<polygon class="st0" points="219,172.5 169.4,172.5 169.4,170.5 218.2,170.5 236.7,152 238.2,153.4 	"/>
</g>
<g>
	<polygon class="st0" points="178.5,229.5 177.1,228.1 192.5,212.7 224.1,212.7 264.5,172.3 293.5,172.3 293.5,174.3 265.3,174.3 
		224.9,214.7 193.4,214.7 	"/>
</g>
<g>
	<polygon class="st0" points="168.5,137.9 167.1,136.5 191.3,112.1 279.2,112.1 279.2,114.1 192.2,114.1 	"/>
</g>
<g>
	<polygon class="st0" points="142.4,163.7 140.4,163.7 140.4,125.1 127.2,111.9 127.2,66.4 129.2,66.4 129.2,111.1 142.4,124.3 	"/>
</g>
<g>
	
		<rect x="124.1" y="100.7" transform="matrix(0.7037 -0.7105 0.7105 0.7037 -31.4059 128.1514)" class="st0" width="27.6" height="2"/>
</g>
<g>
	<polygon class="st0" points="142.1,125.4 140.7,124 182.5,82.1 182.5,51.7 184.5,51.7 184.5,82.9 	"/>
</g>
<g>
	
		<rect x="232.6" y="78.5" transform="matrix(0.7034 -0.7108 0.7108 0.7034 16.5476 198.6065)" class="st0" width="27.3" height="2"/>
</g>
<g>
	<polygon class="st0" points="108.1,206.8 106.1,206.8 106.1,192.9 73.7,192.9 52.1,171.4 32.4,171.4 32.4,169.4 53,169.4 
		74.5,190.9 108.1,190.9 	"/>
</g>
<g>
	<rect x="73.1" y="172.5" class="st0" width="2" height="19.4"/>
</g>
<g>
	<polygon class="st0" points="108.8,153.3 106.8,153.3 106.8,132.5 84,109.5 62.4,88.1 63.8,86.7 85.4,108.1 108.8,131.7 	"/>
</g>
<g>
	<polygon class="st0" points="107.8,133.1 79,133.1 62.5,116.6 5.5,116.6 5.5,114.6 63.4,114.6 79.8,131.1 107.8,131.1 	"/>
</g>
<g>
	<polygon class="st0" points="113.6,105.6 84.3,76.1 84.3,46.8 86.3,46.8 86.3,75.2 115,104.2 	"/>
</g>
</svg>
